<?xml version="1.0" encoding="UTF-8" standalone="no"?>
<!-- Generator: Adobe Illustrator 22.0.1, SVG Export Plug-In . SVG Version: 6.00 Build 0)  -->

<svg
   version="1.1"
   id="Calque_1"
   x="0px"
   y="0px"
   viewBox="0 0 64 64"
   xml:space="preserve"
   sodipodi:docname="favicon.svg"
   inkscape:version="1.1.1 (3bf5ae0d25, 2021-09-20)"
   inkscape:export-filename="C:\All\Batocera\batocera-assets\logos\favicon\favicon-196.png"
   inkscape:export-xdpi="294"
   inkscape:export-ydpi="294"
   width="64"
   height="64"
   xmlns:inkscape="http://www.inkscape.org/namespaces/inkscape"
   xmlns:sodipodi="http://sodipodi.sourceforge.net/DTD/sodipodi-0.dtd"
   xmlns="http://www.w3.org/2000/svg"
   xmlns:svg="http://www.w3.org/2000/svg"><defs
   id="defs93">
	
	
	
	
	
	
	
			
	
	
	
	
	
	

</defs><sodipodi:namedview
   id="namedview91"
   pagecolor="#808080"
   bordercolor="#666666"
   borderopacity="1.0"
   inkscape:pageshadow="2"
   inkscape:pageopacity="0"
   inkscape:pagecheckerboard="true"
   showgrid="false"
   inkscape:current-layer="layer5"
   inkscape:snap-global="true"
   inkscape:object-paths="false"
   inkscape:snap-nodes="false"
   inkscape:object-nodes="true"
   inkscape:snap-others="false"
   inkscape:snap-intersection-paths="false"
   inkscape:snap-bbox="true"
   inkscape:snap-smooth-nodes="false"
   inkscape:bbox-nodes="true"
   fit-margin-top="0"
   fit-margin-left="0"
   fit-margin-right="0"
   fit-margin-bottom="0"
   inkscape:snap-page="true"
   inkscape:bbox-paths="true" />


<polygon
   points=""
   id="polygon66"
   transform="translate(-333.19958,-412.3)" />
<g
   inkscape:groupmode="layer"
   id="layer5"
   inkscape:label="Button"
   style="display:inline"
   transform="translate(-333.19958,-412.3)"><path
     style="display:inline;fill:#ffffff;fill-opacity:1;stroke:none;stroke-width:0.778577px;stroke-linecap:butt;stroke-linejoin:miter;stroke-opacity:1"
     d="m 357.25565,453.57296 c -2.73937,-0.85015 -9.16273,-1.98368 -10.29626,-4.62859 -1.13354,-2.64491 0,-5.19536 1.03907,-7.84027 1.03907,-2.64491 7.93473,-16.2473 9.16272,-17.85314 1.228,-1.60584 2.92829,-3.58952 5.66767,-3.58952 2.73937,0 6.32889,0.85015 8.78487,1.51137 2.45599,0.66123 7.08459,3.58952 7.55689,7.17905 0.47231,3.58952 -0.28338,6.42335 -2.45598,8.59595 3.30613,1.98369 3.96736,7.2735 3.02274,10.01287 -0.9446,2.73938 -6.0455,8.0292 -11.24086,7.74581 -5.19536,-0.28338 -7.08458,-0.28338 -11.24086,-1.13353 z"
     id="path1298"
     inkscape:export-filename="C:\All\Batocera\batocera-assets\logos\joystick-black-favicon.png"
     inkscape:export-xdpi="192"
     inkscape:export-ydpi="192" /><path
     fill="#bf1617"
     d="m 365.433,434.86543 c 1.32358,0.31143 2.64717,0.23358 3.89289,-0.31143 1.24572,-0.545 2.10216,-1.32358 2.49145,-2.49145 0.46714,-1.09 0.38929,-2.10215 -0.23358,-3.03645 -0.545,-0.93429 -1.47929,-1.63501 -2.80287,-1.94644 -2.10216,-0.46715 -3.19217,-0.77858 -5.29433,-1.24572 -1.4793,3.11431 -2.18002,4.5936 -3.65931,7.70791 2.25787,0.545 3.34788,0.77858 5.60575,1.32358 0,0 0,0 0,0 z"
     id="path80"
     inkscape:export-filename="C:\All\Batocera\batocera-assets\logos\joystick-black-favicon.png"
     inkscape:export-xdpi="192"
     inkscape:export-ydpi="192"
     style="display:inline;stroke:none;stroke-width:0.778577" /><path
     fill="#bf1617"
     d="m 369.79304,447.71196 c 1.24572,-0.54501 2.10215,-1.32359 2.49144,-2.33574 0.38929,-1.09 0.31143,-2.10215 -0.38929,-3.1143 -0.62286,-1.01215 -1.63501,-1.63502 -2.95859,-1.94645 -4.43789,-1.09001 -6.61791,-1.63501 -11.0558,-2.64716 -1.40143,3.03645 -2.10215,4.51575 -3.58145,7.47434 4.5936,1.16787 6.85148,1.71287 11.44508,2.80288 1.4793,0.38929 2.80288,0.31143 4.04861,-0.23357 z"
     id="path86"
     inkscape:export-filename="C:\All\Batocera\batocera-assets\logos\joystick-black-favicon.png"
     inkscape:export-xdpi="192"
     inkscape:export-ydpi="192"
     style="display:inline;stroke:none;stroke-width:0.778577" /><path
     fill="#831308"
     d="m 397.19589,439.07342 c -1.87863,14.48692 -15.36368,23.24531 -32.37791,24.13591 -16.74705,0.8766 -30.4651,-11.62887 -31.6184,-24.0813 l 0.40326,10.71361 c 0.31578,13.31561 14.0783,23.95785 31.51843,23.98019 13.62845,0.0174 31.31379,-8.47759 31.80872,-24.60306 z"
     id="path78-5"
     sodipodi:nodetypes="csccscc"
     inkscape:export-filename="C:\All\Batocera\batocera-assets\logos\joystick-black-favicon.png"
     inkscape:export-xdpi="192"
     inkscape:export-ydpi="192"
     style="display:inline;stroke:none;stroke-width:0.778577" /><path
     fill="#bf1617"
     d="m 365.04369,414.77814 c -5.76148,0 -11.21152,1.16787 -15.88298,3.27002 -2.80288,1.24572 -5.37219,2.80287 -7.55221,4.67146 -1.47929,1.24573 -2.80288,2.64717 -3.97074,4.12647 -2.80288,3.65931 -4.4379,7.94148 -4.4379,12.45725 v 0.54499 c 0.38929,13.31368 14.48157,23.95788 31.92169,23.98021 13.62846,0.0174 31.94622,-8.55541 32.0774,-24.60306 0.11076,-13.54882 -14.48154,-24.44734 -32.15526,-24.44734 z m 12.61296,31.92169 c -0.38929,1.16786 -1.01215,2.10215 -1.94644,2.95858 -0.9343,0.85645 -1.94645,1.55716 -3.19217,2.02431 -1.24573,0.46715 -2.5693,0.77858 -3.97075,0.85644 -1.4793,0.0779 -2.95859,0 -4.36003,-0.38929 -4.67147,-1.16787 -7.0072,-1.71287 -11.67867,-2.88074 -1.55715,-0.38928 -2.64716,-1.09 -3.34788,-2.18001 -0.70072,-1.09001 -0.70072,-2.18003 -0.15572,-3.27003 3.89289,-7.63006 5.83934,-11.52296 9.73223,-19.15301 0.62286,-1.16787 1.55715,-2.0243 2.88073,-2.56931 1.32358,-0.545 2.64716,-0.70072 3.97075,-0.38929 2.0243,0.54501 3.1143,0.77857 5.13861,1.24573 1.32358,0.31143 2.41359,0.77858 3.34788,1.4793 0.9343,0.70071 1.71287,1.47928 2.25788,2.41358 0.545,0.9343 0.93429,1.94645 1.01215,3.11431 0.0779,1.16787 0,2.25788 -0.46715,3.34789 -0.62286,1.63502 -1.71287,2.9586 -3.19216,4.0486 1.71287,1.01216 3.03645,2.41359 3.81502,4.12646 0.70073,1.63502 0.77858,3.42574 0.15572,5.21648 z"
     id="path84-1"
     sodipodi:nodetypes="scccscssscssccssccsccssscccc"
     inkscape:export-filename="C:\All\Batocera\batocera-assets\logos\joystick-black-favicon.png"
     inkscape:export-xdpi="192"
     inkscape:export-ydpi="192"
     style="display:inline;stroke:none;stroke-width:0.778577" /></g></svg>
