<?xml version="1.0" encoding="UTF-8" standalone="no"?>
<!-- Generator: Adobe Illustrator 22.0.1, SVG Export Plug-In . SVG Version: 6.00 Build 0)  -->

<svg
   version="1.1"
   id="Calque_1"
   x="0px"
   y="0px"
   viewBox="0 0 960 960"
   style="enable-background:new 0 0 960 960;"
   xml:space="preserve"
   sodipodi:docname="joystick-3.svg"
   inkscape:version="1.1 (c68e22c387, 2021-05-23)"
   inkscape:export-filename="C:\All\Batocera\batocera-assets\logos\joystick-black-text.png"
   inkscape:export-xdpi="192"
   inkscape:export-ydpi="192"
   xmlns:inkscape="http://www.inkscape.org/namespaces/inkscape"
   xmlns:sodipodi="http://sodipodi.sourceforge.net/DTD/sodipodi-0.dtd"
   xmlns="http://www.w3.org/2000/svg"
   xmlns:svg="http://www.w3.org/2000/svg"><defs
   id="defs93">
	
	
	
	
	
	
	
			
	
	
	
	
	
	

</defs><sodipodi:namedview
   id="namedview91"
   pagecolor="#ffffff"
   bordercolor="#666666"
   borderopacity="1.0"
   inkscape:pageshadow="2"
   inkscape:pageopacity="0"
   inkscape:pagecheckerboard="true"
   showgrid="false"
   inkscape:current-layer="layer1"
   inkscape:snap-global="true"
   inkscape:object-paths="false"
   inkscape:snap-nodes="true"
   inkscape:object-nodes="true"
   inkscape:snap-others="false"
   inkscape:snap-intersection-paths="false"
   inkscape:snap-bbox="false"
   inkscape:snap-smooth-nodes="false" />


<g
   inkscape:groupmode="layer"
   id="layer3"
   inkscape:label="Subtitle"
   style="display:inline"><g
     id="g58"
     style="stroke:none;stroke-width:4;stroke-miterlimit:4;stroke-dasharray:none;stroke-opacity:1;paint-order:stroke fill markers"><path
       d="m 177.7,655.3 c -2,-0.4 -3.8,-1.2 -5.3,-2.3 -1.6,-1.1 -2.9,-2.4 -3.9,-4 -1,-1.6 -1.7,-3.3 -2.1,-5.2 -0.4,-1.9 -0.4,-3.8 0,-5.8 0.4,-2 1.2,-3.7 2.3,-5.3 1.1,-1.6 2.4,-2.9 4,-3.9 1.6,-1 3.3,-1.7 5.2,-2.1 1.9,-0.4 3.8,-0.4 5.8,0 2,0.4 3.8,1.2 5.3,2.3 1.6,1.1 2.9,2.4 3.9,4 1,1.6 1.7,3.3 2.1,5.2 0.4,1.9 0.4,3.8 0,5.8 -0.4,2 -1.2,3.8 -2.3,5.3 -1.1,1.6 -2.4,2.9 -4,3.9 -1.6,1 -3.3,1.7 -5.2,2.1 -1.9,0.5 -3.9,0.5 -5.8,0 z m 5.1,-24.5 c -1.4,-0.3 -2.8,-0.3 -4.1,0 -1.4,0.3 -2.6,0.8 -3.7,1.5 -1.1,0.7 -2.1,1.7 -2.9,2.8 -0.8,1.1 -1.3,2.4 -1.6,3.8 -0.3,1.4 -0.3,2.8 0,4.2 0.3,1.4 0.8,2.6 1.5,3.7 0.7,1.1 1.7,2.1 2.8,2.9 1.1,0.8 2.4,1.3 3.8,1.6 1.4,0.3 2.8,0.3 4.1,0 1.4,-0.3 2.6,-0.8 3.7,-1.5 1.1,-0.7 2.1,-1.7 2.9,-2.8 0.8,-1.1 1.3,-2.4 1.6,-3.8 0.3,-1.4 0.3,-2.8 0,-4.1 -0.3,-1.4 -0.8,-2.6 -1.5,-3.7 -0.7,-1.1 -1.7,-2.1 -2.8,-2.9 -1.1,-0.9 -2.4,-1.4 -3.8,-1.7 z"
       id="path20"
       style="stroke:none;stroke-width:4;stroke-miterlimit:4;stroke-dasharray:none;stroke-opacity:1;paint-order:stroke fill markers" /><path
       d="m 206.3,643.6 c 0.3,-1.6 0.9,-3.1 1.7,-4.4 0.8,-1.3 1.8,-2.4 2.9,-3.2 1.1,-0.9 2.4,-1.5 3.7,-1.8 1.4,-0.3 2.7,-0.4 4.1,-0.1 1.4,0.3 2.7,0.9 3.8,1.7 1.1,0.9 2,1.9 2.7,3.2 0.7,1.3 1.2,2.6 1.4,4.2 0.2,1.5 0.2,3.1 -0.1,4.7 l -2.5,12.3 -0.8,4.1 c -1.1,-0.2 -2,-0.8 -2.6,-1.8 -0.6,-1 -0.8,-2 -0.6,-3.1 l 2.5,-12.3 c 0.2,-1 0.3,-2.1 0.1,-3 -0.1,-1 -0.4,-1.9 -0.8,-2.7 -0.4,-0.8 -0.9,-1.5 -1.6,-2 -0.7,-0.5 -1.4,-0.9 -2.2,-1.1 -0.8,-0.2 -1.7,-0.1 -2.5,0.1 -0.8,0.2 -1.6,0.6 -2.3,1.2 -0.7,0.6 -1.3,1.3 -1.8,2.1 -0.5,0.8 -0.9,1.8 -1.1,2.8 l -2.6,12.3 c -0.2,1.1 -0.8,2 -1.8,2.6 -1,0.6 -2,0.8 -3.1,0.6 l 0.8,-4.1 z"
       id="path22"
       style="stroke:none;stroke-width:4;stroke-miterlimit:4;stroke-dasharray:none;stroke-opacity:1;paint-order:stroke fill markers" /><path
       d="m 247.6,665 c 1.1,0.2 2,0.8 2.6,1.8 0.6,1 0.8,2 0.6,3.1 l -4.1,-0.8 -8.1,-1.7 c -0.6,-0.1 -1.1,-0.3 -1.5,-0.6 -0.4,-0.3 -0.8,-0.7 -1.1,-1.1 -0.3,-0.4 -0.5,-0.9 -0.6,-1.5 -0.1,-0.5 -0.1,-1.1 0,-1.7 l 4,-19 0.8,-4.1 c 1.2,0.2 2,0.8 2.7,1.8 0.6,1 0.8,2 0.6,3.1 l -4,19.1 z"
       id="path24"
       style="stroke:none;stroke-width:4;stroke-miterlimit:4;stroke-dasharray:none;stroke-opacity:1;paint-order:stroke fill markers" /><path
       d="m 277.4,655.9 c -0.2,1.1 -0.7,2.1 -1.3,3.1 -0.6,0.9 -1.4,1.7 -2.3,2.3 -0.9,0.6 -1.9,1.1 -3,1.5 -1.1,0.3 -2.3,0.5 -3.5,0.4 l -1.2,5.6 c -0.2,1.1 -0.8,2 -1.8,2.6 -1,0.6 -2,0.8 -3.1,0.6 l 0.8,-4.1 1.2,-5.6 c -1.1,-0.5 -2.1,-1.1 -2.9,-1.8 -0.9,-0.8 -1.6,-1.6 -2.1,-2.5 -0.5,-0.9 -0.9,-2 -1.1,-3 -0.2,-1.1 -0.2,-2.2 0,-3.3 l 0.9,-4.4 0.8,-4.1 c 1.1,0.2 2,0.8 2.6,1.8 0.6,1 0.8,2 0.6,3.1 l -0.9,4.4 c -0.1,0.7 -0.1,1.4 0,2.1 0.2,0.7 0.5,1.3 0.9,1.9 0.5,0.6 1,1.1 1.7,1.5 0.7,0.4 1.5,0.7 2.3,0.9 0.8,0.2 1.7,0.2 2.5,0.1 0.8,-0.1 1.5,-0.3 2.2,-0.7 0.6,-0.3 1.2,-0.8 1.6,-1.4 0.4,-0.6 0.7,-1.2 0.9,-1.9 l 0.9,-4.4 c 0.2,-1.1 0.8,-2 1.8,-2.6 1,-0.6 2,-0.8 3.1,-0.6 l -0.8,4.1 z"
       id="path26"
       style="stroke:none;stroke-width:4;stroke-miterlimit:4;stroke-dasharray:none;stroke-opacity:1;paint-order:stroke fill markers" /><path
       d="m 319,679.8 c 1.1,0.2 2,0.8 2.6,1.8 0.6,1 0.8,2 0.6,3.1 l -4.1,-0.8 -3.7,-0.8 c -2,-0.4 -3.8,-1.2 -5.5,-2.2 -1.7,-1 -3,-2.4 -4,-3.9 -1.1,-1.5 -1.8,-3.2 -2.2,-5 -0.4,-1.8 -0.4,-3.7 0,-5.5 0.4,-1.8 1.1,-3.5 2.2,-5 1.1,-1.5 2.4,-2.7 4,-3.7 1.6,-0.9 3.3,-1.6 5.2,-2 1.9,-0.4 3.9,-0.3 5.9,0.1 l 3.7,0.8 4.1,0.8 c -0.2,1.2 -0.8,2 -1.8,2.7 -1,0.6 -2,0.8 -3.1,0.6 l -3.7,-0.8 c -1.5,-0.3 -2.9,-0.3 -4.3,-0.1 -1.4,0.2 -2.6,0.7 -3.8,1.4 -1.1,0.7 -2.1,1.5 -2.9,2.6 -0.8,1 -1.3,2.2 -1.6,3.5 -0.3,1.3 -0.3,2.6 0,3.9 0.3,1.3 0.8,2.4 1.6,3.5 0.8,1.1 1.7,2 2.9,2.7 1.2,0.8 2.5,1.3 4,1.6 z"
       id="path28"
       style="stroke:none;stroke-width:4;stroke-miterlimit:4;stroke-dasharray:none;stroke-opacity:1;paint-order:stroke fill markers" /><path
       d="m 341,689.4 c -2,-0.4 -3.8,-1.2 -5.3,-2.3 -1.6,-1.1 -2.9,-2.4 -3.9,-4 -1,-1.6 -1.7,-3.3 -2.1,-5.2 -0.4,-1.9 -0.4,-3.8 0,-5.8 0.4,-2 1.2,-3.7 2.3,-5.3 1.1,-1.6 2.4,-2.9 4,-3.9 1.6,-1 3.3,-1.7 5.2,-2.1 1.9,-0.4 3.8,-0.4 5.8,0 2,0.4 3.8,1.2 5.3,2.3 1.6,1.1 2.9,2.4 3.9,4 1,1.6 1.7,3.3 2.1,5.2 0.4,1.9 0.4,3.8 0,5.8 -0.4,2 -1.2,3.8 -2.3,5.3 -1.1,1.6 -2.4,2.9 -4,3.9 -1.6,1 -3.3,1.7 -5.2,2.1 -1.9,0.4 -3.9,0.4 -5.8,0 z m 5.1,-24.5 c -1.4,-0.3 -2.8,-0.3 -4.1,0 -1.4,0.3 -2.6,0.8 -3.7,1.5 -1.1,0.7 -2.1,1.7 -2.9,2.8 -0.8,1.1 -1.3,2.4 -1.6,3.8 -0.3,1.4 -0.3,2.8 0,4.2 0.3,1.4 0.8,2.6 1.5,3.7 0.7,1.1 1.7,2.1 2.8,2.9 1.1,0.8 2.4,1.3 3.8,1.6 1.4,0.3 2.8,0.3 4.1,0 1.3,-0.3 2.6,-0.8 3.7,-1.5 1.1,-0.7 2.1,-1.7 2.9,-2.8 0.8,-1.1 1.3,-2.4 1.6,-3.8 0.3,-1.4 0.3,-2.8 0,-4.1 -0.3,-1.4 -0.8,-2.6 -1.5,-3.7 -0.7,-1.1 -1.7,-2.1 -2.8,-2.9 -1.2,-0.9 -2.4,-1.4 -3.8,-1.7 z"
       id="path30"
       style="stroke:none;stroke-width:4;stroke-miterlimit:4;stroke-dasharray:none;stroke-opacity:1;paint-order:stroke fill markers" /><path
       d="m 381.9,693 2.3,3.5 c -0.5,0.3 -1,0.5 -1.5,0.6 -0.5,0.1 -1.1,0.1 -1.6,0 -0.5,-0.1 -1,-0.3 -1.5,-0.6 -0.5,-0.3 -0.8,-0.7 -1.1,-1.2 l -6.9,-10.5 -1.2,5.8 c -0.2,1.1 -0.8,2 -1.8,2.6 -1,0.6 -2,0.8 -3.1,0.6 l 0.8,-4.1 3,-14.3 0.1,-0.3 c 0.3,-1.3 0.8,-2.4 1.5,-3.4 0.7,-1 1.6,-1.9 2.6,-2.5 1,-0.7 2.1,-1.1 3.3,-1.4 1.2,-0.2 2.5,-0.2 3.7,0 1.3,0.3 2.4,0.8 3.4,1.5 1,0.7 1.9,1.6 2.5,2.6 0.7,1 1.1,2.1 1.4,3.3 0.2,1.2 0.2,2.5 0,3.7 -0.2,1.2 -0.7,2.3 -1.3,3.2 -0.6,1 -1.4,1.8 -2.3,2.5 -0.9,0.7 -1.9,1.1 -3,1.5 -1.1,0.3 -2.3,0.4 -3.4,0.3 z m -8.5,-17 c -0.2,0.7 -0.2,1.4 0,2.1 0.1,0.7 0.4,1.3 0.8,1.9 0.4,0.6 0.8,1 1.4,1.4 0.6,0.4 1.2,0.7 1.9,0.8 0.7,0.1 1.4,0.2 2.1,0 0.7,-0.1 1.3,-0.4 1.9,-0.8 0.6,-0.4 1.1,-0.8 1.5,-1.4 0.4,-0.6 0.7,-1.2 0.8,-1.9 0.1,-0.7 0.2,-1.4 0,-2.1 -0.1,-0.7 -0.4,-1.3 -0.8,-1.9 -0.4,-0.6 -0.9,-1 -1.4,-1.4 -0.6,-0.4 -1.2,-0.7 -1.9,-0.8 -0.7,-0.1 -1.4,-0.2 -2.1,0 -0.7,0.1 -1.3,0.4 -1.9,0.8 -0.6,0.4 -1,0.8 -1.4,1.4 -0.5,0.5 -0.8,1.2 -0.9,1.9 z"
       id="path32"
       style="stroke:none;stroke-width:4;stroke-miterlimit:4;stroke-dasharray:none;stroke-opacity:1;paint-order:stroke fill markers" /><path
       d="m 408,698.4 c 1.1,0.2 2,0.8 2.6,1.8 0.6,1 0.8,2 0.6,3.1 l -4.1,-0.8 -8.2,-1.7 c -1.1,-0.2 -2,-0.8 -2.6,-1.8 -0.6,-1 -0.8,-2 -0.6,-3.1 l 4,-19 c 0.2,-1.2 0.8,-2 1.8,-2.7 1,-0.6 2,-0.8 3.1,-0.6 l 8.2,1.7 4.1,0.8 c -0.2,1.2 -0.8,2 -1.8,2.7 -1,0.6 -2,0.8 -3.1,0.6 l -8.2,-1.7 -1.3,6.5 4.1,0.9 c 1.1,0.2 2,0.8 2.6,1.8 0.6,1 0.8,2 0.6,3.2 l -4.1,-0.8 -4.1,-0.9 -1.8,8.5 z"
       id="path34"
       style="stroke:none;stroke-width:4;stroke-miterlimit:4;stroke-dasharray:none;stroke-opacity:1;paint-order:stroke fill markers" /><path
       d="m 433.3,683.8 c -0.6,-0.1 -1.1,-0.1 -1.7,0 -0.5,0.1 -1,0.3 -1.5,0.5 -0.5,0.2 -0.8,0.6 -1.1,1 -0.3,0.4 -0.5,0.9 -0.6,1.4 -0.1,0.5 -0.1,1 0,1.5 0.1,0.5 0.3,0.9 0.6,1.3 0.3,0.4 0.7,0.8 1.2,1.1 0.5,0.3 1,0.5 1.5,0.6 v 0 c 1.1,0.3 2.1,0.7 2.9,1.3 0.9,0.6 1.6,1.4 2.1,2.2 0.5,0.8 1,1.8 1.2,2.8 0.2,1 0.2,2.1 0,3.1 -0.2,1.1 -0.7,2.1 -1.3,3 -0.6,0.9 -1.4,1.6 -2.3,2.2 -0.9,0.6 -1.9,0.9 -2.9,1.2 -1.1,0.2 -2.2,0.2 -3.3,0 l -3.9,-0.8 -4.1,-0.8 c 0.2,-1.1 0.8,-2 1.8,-2.6 1,-0.6 2,-0.8 3.1,-0.6 l 3.9,0.8 c 0.5,0.1 1.1,0.1 1.6,0 0.5,-0.1 1,-0.3 1.5,-0.6 0.4,-0.3 0.8,-0.6 1.1,-1 0.3,-0.4 0.5,-0.9 0.6,-1.4 0.1,-0.5 0.1,-1.1 0,-1.6 -0.1,-0.5 -0.3,-1 -0.6,-1.4 -0.3,-0.4 -0.7,-0.8 -1.1,-1.1 -0.5,-0.3 -0.9,-0.5 -1.5,-0.6 v 0 c -1.1,-0.3 -2.1,-0.7 -3,-1.3 -0.9,-0.6 -1.6,-1.3 -2.2,-2.2 -0.6,-0.8 -1,-1.8 -1.2,-2.8 -0.2,-1 -0.2,-2 0,-3.1 0.2,-1.1 0.7,-2 1.3,-2.9 0.6,-0.9 1.4,-1.5 2.3,-2.1 0.9,-0.5 1.9,-0.9 2.9,-1.1 1.1,-0.2 2.2,-0.2 3.3,0.1 l 2.1,0.4 1.9,0.4 4.1,0.9 c -0.1,0.6 -0.3,1.1 -0.6,1.5 -0.3,0.4 -0.7,0.8 -1.2,1.1 -0.5,0.3 -1,0.5 -1.5,0.6 -0.5,0.1 -1.1,0.1 -1.7,0 z"
       id="path36"
       style="stroke:none;stroke-width:4;stroke-miterlimit:4;stroke-dasharray:none;stroke-opacity:1;paint-order:stroke fill markers" /><path
       d="m 488.7,691.1 c -0.2,1.2 -0.8,2 -1.8,2.7 -1,0.6 -2,0.8 -3.2,0.6 l -4.1,-0.8 -4,19 c -0.2,1.1 -0.8,2 -1.8,2.6 -1,0.6 -2,0.8 -3.1,0.6 l 0.8,-4.1 4,-19 -4.1,-0.9 c -1.1,-0.2 -2,-0.8 -2.6,-1.8 -0.6,-1 -0.8,-2 -0.6,-3.2 l 4.1,0.8 12.2,2.5 z"
       id="path38"
       style="stroke:none;stroke-width:4;stroke-miterlimit:4;stroke-dasharray:none;stroke-opacity:1;paint-order:stroke fill markers" /><path
       d="m 513.8,720.5 -0.8,4.1 c -1.1,-0.2 -2,-0.8 -2.6,-1.8 -0.6,-1 -0.8,-2 -0.6,-3.1 l 1.8,-8.8 -12.2,-2.5 -1.8,8.8 c -0.2,1.1 -0.8,2 -1.8,2.6 -1,0.6 -2,0.8 -3.1,0.6 l 0.8,-4.1 4,-19.1 0.8,-4.1 c 1.1,0.2 2,0.8 2.6,1.8 0.6,1 0.8,2 0.6,3.1 l -1.3,6.1 12.2,2.5 1.3,-6.1 c 0.2,-1.1 0.8,-2 1.8,-2.6 1,-0.6 2,-0.8 3.1,-0.6 l -0.8,4.1 z"
       id="path40"
       style="stroke:none;stroke-width:4;stroke-miterlimit:4;stroke-dasharray:none;stroke-opacity:1;paint-order:stroke fill markers" /><path
       d="m 548.7,707.6 c 0.7,1.6 1.2,3.3 1.4,5.1 0.2,1.8 0.1,3.7 -0.3,5.6 l -1.9,9.1 c -0.2,1.2 -0.8,2 -1.8,2.7 -1,0.6 -2,0.8 -3.2,0.6 l 0.9,-4.1 1,-5 -14.5,-3 -1.9,9.1 c -1.2,-0.2 -2.1,-0.8 -2.7,-1.8 -0.6,-1 -0.8,-2 -0.6,-3.2 l 1.9,-9.1 c 0.4,-1.9 1,-3.7 1.9,-5.3 0.9,-1.6 2,-3 3.3,-4.1 1.4,-1.2 2.9,-2.1 4.5,-2.6 1.6,-0.5 3.2,-0.5 4.8,-0.2 1.6,0.3 3,1 4.3,2.1 1.1,1.1 2.1,2.4 2.9,4.1 z m -3.1,9.9 c 0.3,-1.4 0.4,-2.8 0.3,-4.1 -0.1,-1.3 -0.4,-2.6 -0.9,-3.6 -0.5,-1.1 -1.1,-2 -1.8,-2.7 -0.8,-0.7 -1.6,-1.2 -2.6,-1.4 -1,-0.2 -2,-0.1 -3,0.3 -1,0.4 -1.9,1 -2.8,1.8 -0.9,0.8 -1.6,1.8 -2.3,3 -0.7,1.2 -1.1,2.5 -1.4,3.9 z"
       id="path42"
       style="stroke:none;stroke-width:4;stroke-miterlimit:4;stroke-dasharray:none;stroke-opacity:1;paint-order:stroke fill markers" /><path
       d="m 579.3,710 c -0.2,1.2 -0.8,2 -1.8,2.7 -1,0.7 -2,0.8 -3.2,0.6 l -4.1,-0.8 -4,19.1 c -0.2,1.1 -0.8,2 -1.8,2.6 -1,0.6 -2,0.8 -3.1,0.6 l 0.8,-4.1 4,-19.1 -4.1,-0.9 c -1.1,-0.2 -2,-0.8 -2.6,-1.8 -0.6,-1 -0.8,-2 -0.6,-3.2 l 4.1,0.8 12.2,2.5 z"
       id="path44"
       style="stroke:none;stroke-width:4;stroke-miterlimit:4;stroke-dasharray:none;stroke-opacity:1;paint-order:stroke fill markers" /><path
       d="m 639.4,746.7 -0.8,4.1 c -1.2,-0.2 -2,-0.8 -2.7,-1.8 -0.6,-1 -0.8,-2 -0.6,-3.1 l 2.8,-13.6 c 0.2,-0.8 0.2,-1.7 0,-2.5 -0.2,-0.8 -0.5,-1.6 -0.9,-2.2 -0.4,-0.7 -1,-1.2 -1.7,-1.7 -0.7,-0.5 -1.4,-0.8 -2.3,-1 -0.8,-0.2 -1.7,-0.2 -2.5,0 -0.8,0.2 -1.5,0.5 -2.2,0.9 -0.7,0.4 -1.2,1 -1.7,1.7 -0.5,0.7 -0.8,1.4 -1,2.3 l -0.8,4 c -0.1,0.6 -0.3,1.1 -0.6,1.5 -0.3,0.4 -0.7,0.8 -1.1,1.1 -0.4,0.3 -0.9,0.5 -1.5,0.6 -0.6,0.1 -1.1,0.1 -1.7,0 l 1.7,-8.1 c 0.2,-0.8 0.2,-1.7 0,-2.5 -0.2,-0.8 -0.5,-1.6 -0.9,-2.2 -0.4,-0.7 -1,-1.2 -1.6,-1.7 -0.7,-0.5 -1.4,-0.8 -2.3,-1 -0.8,-0.2 -1.7,-0.2 -2.5,0 -0.8,0.2 -1.6,0.5 -2.2,0.9 -0.7,0.4 -1.2,1 -1.7,1.7 -0.5,0.7 -0.8,1.4 -1,2.3 l -2.8,13.6 c -0.2,1.1 -0.8,2 -1.8,2.6 -1,0.6 -2,0.8 -3.1,0.6 l 0.8,-4.1 2.8,-13.6 c 0.3,-1.4 0.8,-2.7 1.6,-3.8 0.8,-1.1 1.7,-2.1 2.8,-2.8 1.1,-0.7 2.3,-1.2 3.7,-1.5 1.3,-0.3 2.7,-0.3 4.1,0 1.7,0.4 3.2,1 4.4,2.1 1.3,1 2.2,2.3 2.9,3.7 1.2,-1.1 2.6,-1.8 4.1,-2.3 1.6,-0.4 3.2,-0.5 4.8,-0.1 1.4,0.3 2.7,0.8 3.8,1.6 1.1,0.8 2.1,1.7 2.8,2.8 0.7,1.1 1.2,2.3 1.5,3.7 0.3,1.4 0.3,2.7 0,4.1 z"
       id="path46"
       style="stroke:none;stroke-width:4;stroke-miterlimit:4;stroke-dasharray:none;stroke-opacity:1;paint-order:stroke fill markers" /><path
       d="m 674.2,733.8 c 0.7,1.6 1.2,3.3 1.4,5.1 0.2,1.8 0.1,3.7 -0.3,5.6 l -1.9,9.1 c -0.2,1.2 -0.8,2 -1.8,2.7 -1,0.6 -2,0.8 -3.2,0.6 l 0.9,-4.1 1,-5 -14.5,-3 -1.9,9.1 c -1.2,-0.2 -2,-0.8 -2.7,-1.8 -0.6,-1 -0.8,-2 -0.6,-3.2 l 1.9,-9.1 c 0.4,-1.9 1,-3.7 1.9,-5.3 0.9,-1.6 2,-3 3.3,-4.1 1.4,-1.2 2.9,-2.1 4.5,-2.6 1.6,-0.5 3.2,-0.5 4.8,-0.2 1.6,0.3 3,1 4.3,2.1 1.1,1.1 2.1,2.4 2.9,4.1 z m -3.1,9.9 c 0.3,-1.4 0.4,-2.8 0.3,-4.1 -0.1,-1.3 -0.4,-2.6 -0.9,-3.6 -0.5,-1.1 -1.1,-2 -1.8,-2.7 -0.8,-0.7 -1.6,-1.2 -2.6,-1.4 -1,-0.2 -2,-0.1 -3,0.3 -1,0.4 -1.9,1 -2.8,1.8 -0.9,0.8 -1.6,1.8 -2.3,3 -0.7,1.2 -1.1,2.5 -1.4,3.9 z"
       id="path48"
       style="stroke:none;stroke-width:4;stroke-miterlimit:4;stroke-dasharray:none;stroke-opacity:1;paint-order:stroke fill markers" /><path
       d="m 704.8,736.2 c -0.2,1.2 -0.8,2 -1.8,2.7 -1,0.6 -2,0.8 -3.2,0.6 l -4.1,-0.8 -4,19 c -0.2,1.1 -0.8,2 -1.8,2.6 -1,0.6 -2,0.8 -3.1,0.6 l 0.8,-4.1 4,-19 -4.1,-0.9 c -1.1,-0.2 -2,-0.8 -2.6,-1.8 -0.6,-1 -0.8,-2 -0.6,-3.2 l 4.1,0.8 12.2,2.5 z"
       id="path50"
       style="stroke:none;stroke-width:4;stroke-miterlimit:4;stroke-dasharray:none;stroke-opacity:1;paint-order:stroke fill markers" /><path
       d="m 733,742.1 c -0.2,1.2 -0.8,2 -1.8,2.7 -1,0.6 -2,0.8 -3.2,0.6 l -4.1,-0.8 -4,19.1 c -0.2,1.1 -0.8,2 -1.8,2.6 -1,0.6 -2,0.8 -3.1,0.6 l 0.8,-4.1 4,-19 -4.1,-0.9 c -1.1,-0.2 -2,-0.8 -2.6,-1.8 -0.6,-1 -0.8,-2 -0.6,-3.2 l 4.1,0.8 12.2,2.5 z"
       id="path52"
       style="stroke:none;stroke-width:4;stroke-miterlimit:4;stroke-dasharray:none;stroke-opacity:1;paint-order:stroke fill markers" /><path
       d="m 749.8,769.7 c 1.1,0.2 2,0.8 2.6,1.8 0.6,1 0.8,2 0.6,3.1 l -4.1,-0.8 -8.2,-1.7 c -1.1,-0.2 -2,-0.8 -2.6,-1.8 -0.6,-1 -0.8,-2 -0.6,-3.1 l 4,-19 c 0.2,-1.2 0.8,-2 1.8,-2.7 1,-0.6 2,-0.8 3.1,-0.6 l 8.2,1.7 4.1,0.8 c -0.2,1.2 -0.8,2 -1.8,2.7 -1,0.6 -2,0.8 -3.1,0.6 l -8.2,-1.7 -1.3,6.5 4.1,0.9 c 1.1,0.2 2,0.8 2.6,1.8 0.6,1 0.8,2 0.6,3.2 l -4.1,-0.8 -4.1,-0.9 -1.8,8.5 z"
       id="path54"
       style="stroke:none;stroke-width:4;stroke-miterlimit:4;stroke-dasharray:none;stroke-opacity:1;paint-order:stroke fill markers" /><path
       d="m 778.7,775.8 2.3,3.5 c -0.5,0.3 -1,0.5 -1.5,0.6 -0.5,0.1 -1.1,0.1 -1.6,0 -0.5,-0.1 -1,-0.3 -1.5,-0.6 -0.5,-0.3 -0.8,-0.7 -1.1,-1.2 l -6.9,-10.5 -1.2,5.8 c -0.2,1.1 -0.8,2 -1.8,2.6 -1,0.6 -2,0.8 -3.1,0.6 l 0.8,-4.1 3,-14.3 0.1,-0.3 c 0.3,-1.3 0.8,-2.4 1.5,-3.4 0.7,-1 1.6,-1.9 2.6,-2.5 1,-0.7 2.1,-1.1 3.3,-1.4 1.2,-0.3 2.5,-0.2 3.7,0 1.3,0.3 2.4,0.8 3.4,1.5 1,0.7 1.9,1.6 2.5,2.6 0.7,1 1.1,2.1 1.4,3.3 0.2,1.2 0.2,2.5 0,3.7 -0.2,1.2 -0.7,2.3 -1.3,3.2 -0.6,1 -1.4,1.8 -2.3,2.5 -0.9,0.7 -1.9,1.1 -3,1.5 -1.1,0.3 -2.3,0.4 -3.4,0.3 z m -8.5,-17 c -0.2,0.7 -0.2,1.4 0,2.1 0.1,0.7 0.4,1.3 0.8,1.9 0.4,0.6 0.8,1 1.4,1.4 0.6,0.4 1.2,0.7 1.9,0.8 0.7,0.1 1.4,0.2 2.1,0 0.7,-0.1 1.3,-0.4 1.9,-0.8 0.6,-0.4 1.1,-0.8 1.5,-1.4 0.4,-0.6 0.7,-1.2 0.8,-1.9 0.1,-0.7 0.2,-1.4 0,-2.1 -0.1,-0.7 -0.4,-1.3 -0.8,-1.9 -0.4,-0.6 -0.9,-1 -1.4,-1.4 -0.6,-0.4 -1.2,-0.7 -1.9,-0.8 -0.7,-0.1 -1.4,-0.2 -2.1,0 -0.7,0.2 -1.3,0.4 -1.9,0.8 -0.6,0.4 -1,0.8 -1.4,1.4 -0.5,0.5 -0.7,1.2 -0.9,1.9 z"
       id="path56"
       style="stroke:none;stroke-width:4;stroke-miterlimit:4;stroke-dasharray:none;stroke-opacity:1;paint-order:stroke fill markers" /></g></g><polygon
   points=""
   id="polygon66" />
<g
   inkscape:groupmode="layer"
   id="layer2"
   inkscape:label="Typeface"
   style="display:inline;opacity:1"><path
     id="path60"
     style="stroke:none;stroke-width:4;stroke-linecap:round;stroke-linejoin:round;stroke-miterlimit:4;stroke-dasharray:none;stroke-opacity:1;paint-order:stroke fill markers"
     d="m 332.73474,426.77025 c 2.18149,0.33131 4.24984,0.68093 6.16566,1.03053 1.5,-1.9 3.19961,-3.70078 5.09961,-5.30078 2.8,-2.3 3.30078,-7.40039 3.30078,-7.40039 -2.30099,-0.46687 -5.01352,-0.98371 -8.03046,-1.49447 m 0,0 c -8.29172,-1.40377 -18.88287,-2.90983 -29.54962,-2.90983 h -10e-6 c -8.72871,-0.12129 -17.50859,0.56758 -25.12109,2.70508 -32.1,9.1 -38.79883,28.79961 -44.79883,46.09961 -4.7,13.7 -8.80117,25.60078 -25.20117,32.80078 -8.5,3.7 -25.89883,3.99922 -39.79883,4.19922 -12.4,0.2 -23.10117,0.4 -29.70117,2.5 -23.3,7.7 -40.79883,26.2 -46.798829,49.5 -2.7,10.5 -2.50039,19.79922 0.59961,27.69922 7.999999,20.4 30.607239,28.17839 38.099609,30.70117 0.39118,0.13172 1.09961,0.38086 1.09961,0.38086 l 0.40039,0.11914 47.40039,11.29883 28.90039,6 c 3.7,0.8 7.19922,0.80156 10.69922,0.10156 3.4,-0.7 6.6,-2.00078 9.5,-3.80078 2.9,-1.8 5.30039,-4.19961 7.40039,-7.09961 2,-2.9 3.39922,-6.20078 4.19922,-9.80078 1.3,-5.8 0.60117,-11.39961 -1.79883,-16.59961 -2.5,-5.2 -6.1,-9.29922 -11,-12.19922 3.6,-3.6 5.99922,-8.10156 7.19922,-13.60156 0.8,-3.6 0.79961,-7.19922 0.0996,-10.69922 -0.7,-3.5 -2.1,-6.69961 -4,-9.59961 -2,-2.9 -4.39883,-5.30039 -7.29883,-7.40039 -2.9,-2 -6.20039,-3.39922 -9.90039,-4.19922 l -14.70117,-3.20117 c -3.9,-0.8 -7.39961,-0.1 -10.59961,2 -3.3,2.1 -5.29961,5.1 -6.09961,9 L 175.08398,601.70312 142.80078,594 l -0.90039,-0.30078 c -5.9,-2 -24,-8.1 -29.5,-22.5 -2,-5.1 -1.99961,-11.59922 -0.0996,-19.19922 4.8,-18.6 18.79961,-33.49961 37.59961,-39.59961 4.5,-1.5 15.2,-1.70078 25.5,-1.80078 16,-0.3 34.19883,-0.50039 45.29883,-5.40039 22,-9.7 27.70078,-26.39961 32.80078,-41.09961 5.5,-16.1 10.30078,-29.99961 35.30078,-37.09961 12.81637,-3.61267 30.51561,-2.26761 43.93395,-0.22975 M 202.19922,540.5 l 14.60156,3.19922 c 3.6,0.7 6.39844,2.60156 8.39844,5.60156 1.9,3 2.50078,6.29883 1.80078,9.79883 -0.7,3.6 -2.59961,6.40039 -5.59961,8.40039 -3,2 -6.30039,2.60078 -9.90039,1.80078 v 0.0996 l -14.69922,-3.09961 z M 194.09961,580 223,586 c 3.4,0.7 6.1,2.6 8,5.5 1.9,2.9 2.50078,6.19922 1.80078,9.69922 -0.7,3.4 -2.6,6.1 -5.5,8 -3,1.9 -6.20156,2.50078 -9.60156,1.80078 l -28.79883,-6 z"
     sodipodi:nodetypes="ccccccsccccccccscccccscccccsccccccccccccccccccccsccccccscccccc" /><g
     id="g18"
     style="stroke:none;stroke-width:16;stroke-linecap:round;stroke-linejoin:round;stroke-miterlimit:4;stroke-dasharray:none;stroke-opacity:1;paint-order:stroke fill markers"><path
       d="m 335.5,567.4 c 2.5,5.3 4,11.1 4.7,17.3 0.6,6.3 0.3,12.6 -1.1,19.1 l -6.6,30.9 c -0.8,3.9 -2.9,6.9 -6.2,9.1 -3.3,2.2 -6.9,2.8 -10.8,2 l 2.9,-14 3.5,-16.9 -49.1,-10.2 -6.4,30.9 c -3.9,-0.8 -6.9,-2.9 -9.1,-6.2 -2.2,-3.3 -2.8,-6.9 -2,-10.8 l 6.4,-30.9 c 1.4,-6.5 3.5,-12.5 6.6,-18 3,-5.5 6.7,-10.2 11.1,-14 4.8,-4.2 9.8,-7.1 15.1,-8.6 5.3,-1.6 10.7,-1.8 16.1,-0.7 5.4,1.1 10.3,3.5 14.5,7.1 4.4,3.5 7.8,8.2 10.4,13.9 z m -10.6,33.5 c 1,-4.8 1.3,-9.4 0.9,-14 -0.4,-4.6 -1.4,-8.7 -3,-12.3 -1.6,-3.7 -3.6,-6.8 -6.2,-9.3 -2.6,-2.5 -5.5,-4.1 -8.8,-4.8 -3.3,-0.7 -6.7,-0.4 -10,0.9 -3.4,1.3 -6.5,3.3 -9.4,6 -2.9,2.7 -5.5,6.1 -7.7,10.1 -2.2,4 -3.8,8.4 -4.8,13.2 z"
       id="path4"
       style="stroke:none;stroke-width:4;stroke-linecap:round;stroke-linejoin:round;stroke-miterlimit:4;stroke-dasharray:none;stroke-opacity:1;paint-order:stroke fill markers" /><path
       d="m 414.3,570.2 c -0.8,3.9 -2.8,6.9 -6.1,9 -3.2,2.1 -6.8,2.8 -10.7,1.9 l -13.7,-2.9 -13.5,64.5 c -0.8,3.8 -2.8,6.8 -6,8.9 -3.2,2.1 -6.8,2.8 -10.6,2 l 2.9,-13.7 13.5,-64.5 -13.9,-2.9 c -3.8,-0.8 -6.8,-2.8 -8.9,-6 -2.1,-3.2 -2.8,-6.8 -1.9,-10.7 l 13.7,2.9 41.4,8.6 z"
       id="path6"
       style="stroke:none;stroke-width:4;stroke-linecap:round;stroke-linejoin:round;stroke-miterlimit:4;stroke-dasharray:none;stroke-opacity:1;paint-order:stroke fill markers" /><path
       d="m 436.2,673.5 c -6.7,-1.4 -12.7,-4 -18.1,-7.7 -5.4,-3.8 -9.8,-8.3 -13.3,-13.6 -3.5,-5.3 -5.9,-11.2 -7.1,-17.6 -1.3,-6.4 -1.2,-13 0.1,-19.7 1.4,-6.7 4,-12.7 7.7,-18 3.8,-5.3 8.3,-9.7 13.6,-13.2 5.3,-3.5 11.2,-5.9 17.6,-7.2 6.4,-1.3 13,-1.2 19.7,0.1 6.7,1.4 12.7,4 18.1,7.7 5.4,3.8 9.8,8.3 13.3,13.6 3.5,5.3 5.9,11.2 7.2,17.5 1.3,6.4 1.3,12.9 -0.1,19.6 -1.4,6.7 -4,12.7 -7.7,18.1 -3.8,5.4 -8.3,9.8 -13.6,13.3 -5.3,3.5 -11.2,5.9 -17.6,7.1 -6.6,1.5 -13.1,1.4 -19.8,0 z m 17.4,-83.1 c -4.8,-1 -9.4,-1 -14,-0.1 -4.6,0.9 -8.8,2.6 -12.6,5.1 -3.8,2.5 -7.1,5.6 -9.7,9.5 -2.7,3.8 -4.5,8.1 -5.5,12.9 -1,4.8 -1,9.5 -0.1,14.1 0.9,4.6 2.6,8.8 5.1,12.6 2.5,3.8 5.6,7.1 9.5,9.7 3.8,2.7 8.1,4.5 12.9,5.5 4.8,1 9.4,1 14,0.1 4.6,-0.9 8.8,-2.7 12.6,-5.1 3.8,-2.5 7.1,-5.7 9.8,-9.5 2.7,-3.9 4.5,-8.2 5.5,-13 1,-4.8 1,-9.4 0.1,-14 -0.9,-4.6 -2.7,-8.8 -5.1,-12.6 -2.4,-3.8 -5.6,-7.1 -9.5,-9.7 -4,-2.7 -8.3,-4.5 -13,-5.5 z"
       id="path8"
       style="stroke:none;stroke-width:4;stroke-linecap:round;stroke-linejoin:round;stroke-miterlimit:4;stroke-dasharray:none;stroke-opacity:1;paint-order:stroke fill markers" /><path
       d="m 560.2,682.5 c 3.8,0.8 6.8,2.8 8.9,6 2.1,3.2 2.8,6.8 2,10.6 l -13.7,-2.9 -12.4,-2.6 c -6.9,-1.4 -13,-4 -18.5,-7.6 -5.5,-3.6 -10,-8 -13.6,-13.1 -3.6,-5.1 -6.1,-10.7 -7.5,-16.9 -1.4,-6.2 -1.4,-12.4 -0.1,-18.7 1.3,-6.3 3.8,-12 7.6,-17.1 3.8,-5.1 8.3,-9.2 13.6,-12.5 5.3,-3.2 11.3,-5.4 17.7,-6.6 6.5,-1.2 13.1,-1.1 20,0.4 l 12.4,2.6 13.7,2.9 c -0.8,3.9 -2.8,6.9 -6.1,9 -3.2,2.1 -6.8,2.8 -10.6,2 l -12.4,-2.6 c -5,-1 -9.8,-1.2 -14.5,-0.4 -4.7,0.8 -8.9,2.3 -12.8,4.6 -3.8,2.3 -7.1,5.2 -9.7,8.7 -2.7,3.5 -4.5,7.5 -5.4,11.9 -0.9,4.5 -0.9,8.9 0.2,13.2 1,4.3 2.9,8.2 5.4,11.8 2.6,3.6 5.9,6.7 9.9,9.2 4,2.6 8.5,4.4 13.4,5.4 z"
       id="path10"
       style="stroke:none;stroke-width:4;stroke-linecap:round;stroke-linejoin:round;stroke-miterlimit:4;stroke-dasharray:none;stroke-opacity:1;paint-order:stroke fill markers" /><path
       d="m 620.2,695 c 3.8,0.8 6.8,2.8 8.9,6 2.1,3.2 2.8,6.8 2,10.6 l -13.7,-2.9 -27.6,-5.8 c -3.8,-0.8 -6.8,-2.8 -8.9,-6 -2.1,-3.2 -2.8,-6.8 -2,-10.6 l 13.5,-64.5 c 0.8,-3.9 2.8,-6.9 6.1,-9 3.2,-2.1 6.8,-2.8 10.6,-2 l 27.6,5.8 13.7,2.9 c -0.8,3.9 -2.8,6.9 -6.1,9 -3.2,2.1 -6.8,2.8 -10.6,2 l -27.6,-5.8 -4.6,21.9 13.9,2.9 c 3.8,0.8 6.8,2.8 8.9,6 2.1,3.2 2.8,6.8 1.9,10.7 l -13.7,-2.9 -13.9,-2.9 -6,28.8 z"
       id="path12"
       style="stroke:none;stroke-width:4;stroke-linecap:round;stroke-linejoin:round;stroke-miterlimit:4;stroke-dasharray:none;stroke-opacity:1;paint-order:stroke fill markers" /><path
       d="M 693.3,710.3 701,722 c -1.6,1.1 -3.4,1.7 -5.2,2.1 -1.9,0.3 -3.7,0.3 -5.4,-0.1 -1.8,-0.4 -3.4,-1.1 -4.9,-2.1 -1.5,-1 -2.8,-2.3 -3.9,-3.9 l -23.2,-35.5 -4.1,19.6 c -0.8,3.8 -2.8,6.8 -6,8.9 -3.2,2.1 -6.8,2.8 -10.6,2 l 2.9,-13.7 10.1,-48.5 0.2,-0.9 c 0.9,-4.3 2.5,-8.2 5,-11.6 2.4,-3.4 5.3,-6.3 8.8,-8.5 3.5,-2.3 7.2,-3.8 11.3,-4.7 4.1,-0.8 8.3,-0.8 12.6,0.1 4.3,0.9 8.2,2.6 11.7,5 3.5,2.4 6.3,5.4 8.6,8.8 2.3,3.5 3.8,7.2 4.7,11.3 0.8,4.1 0.8,8.3 -0.1,12.6 -0.8,4 -2.3,7.7 -4.5,11 -2.2,3.3 -4.8,6.1 -7.9,8.3 -3.1,2.2 -6.5,3.9 -10.3,4.9 -3.8,1.1 -7.6,1.4 -11.6,0.9 z m -28.8,-57.5 c -0.5,2.5 -0.5,4.9 -0.1,7.2 0.5,2.3 1.3,4.4 2.6,6.3 1.2,1.9 2.8,3.5 4.8,4.9 2,1.4 4.1,2.3 6.5,2.8 2.4,0.5 4.7,0.5 7.1,0.1 2.3,-0.5 4.5,-1.3 6.4,-2.5 1.9,-1.2 3.6,-2.8 5,-4.8 1.4,-2 2.3,-4.1 2.8,-6.5 0.5,-2.4 0.5,-4.7 0.1,-7.1 -0.5,-2.3 -1.3,-4.5 -2.6,-6.4 -1.3,-1.9 -2.9,-3.5 -4.9,-4.9 -2,-1.4 -4.1,-2.3 -6.5,-2.8 -2.4,-0.5 -4.7,-0.5 -7.1,-0.1 -2.3,0.5 -4.5,1.3 -6.4,2.6 -1.9,1.3 -3.5,2.8 -4.9,4.8 -1.4,1.8 -2.3,4 -2.8,6.4 z"
       id="path14"
       style="stroke:none;stroke-width:4;stroke-linecap:round;stroke-linejoin:round;stroke-miterlimit:4;stroke-dasharray:none;stroke-opacity:1;paint-order:stroke fill markers" /><path
       d="m 793.3,662.9 c 2.5,5.3 4,11.1 4.7,17.3 0.6,6.3 0.3,12.6 -1.1,19.1 l -6.6,30.9 c -0.8,3.9 -2.9,6.9 -6.2,9.1 -3.3,2.2 -6.9,2.8 -10.8,2 l 2.9,-14 3.5,-16.9 -49.1,-10.2 -6.4,30.9 c -3.9,-0.8 -6.9,-2.9 -9.1,-6.2 -2.2,-3.3 -2.8,-6.9 -2,-10.8 l 6.4,-30.9 c 1.4,-6.5 3.5,-12.5 6.6,-18 3,-5.5 6.8,-10.2 11.1,-14 4.8,-4.2 9.8,-7.1 15.1,-8.6 5.3,-1.6 10.7,-1.8 16.1,-0.7 5.4,1.1 10.3,3.5 14.5,7.1 4.4,3.6 7.8,8.2 10.4,13.9 z m -10.5,33.5 c 1,-4.8 1.3,-9.4 0.9,-14 -0.4,-4.6 -1.4,-8.7 -3,-12.3 -1.6,-3.7 -3.6,-6.8 -6.2,-9.3 -2.6,-2.5 -5.5,-4.1 -8.8,-4.8 -3.3,-0.7 -6.7,-0.4 -10,0.9 -3.4,1.3 -6.5,3.3 -9.4,6 -2.9,2.7 -5.5,6.1 -7.7,10.1 -2.2,4 -3.8,8.4 -4.8,13.2 z"
       id="path16"
       style="stroke:none;stroke-width:4;stroke-linecap:round;stroke-linejoin:round;stroke-miterlimit:4;stroke-dasharray:none;stroke-opacity:1;paint-order:stroke fill markers" /></g></g><g
   inkscape:groupmode="layer"
   id="layer1"
   inkscape:label="Joystick"
   style="display:inline"><path
     style="fill:#ffffff;fill-opacity:1;stroke:none;stroke-width:1px;stroke-linecap:butt;stroke-linejoin:miter;stroke-opacity:1"
     d="m 364.09705,462.12784 c -3.51843,-1.09193 -11.76855,-2.54783 -13.22445,-5.94494 -1.45591,-3.3971 0,-6.67288 1.33457,-10.06999 1.33458,-3.39711 10.19132,-20.86794 11.76855,-22.93047 1.57723,-2.06253 3.76108,-4.61036 7.27952,-4.61036 3.51843,0 8.12879,1.09193 11.28324,1.9412 3.15446,0.84928 9.0994,4.61036 9.70602,9.22072 0.60663,4.61036 -0.36397,8.25012 -3.15445,11.0406 4.24638,2.54783 5.09566,9.34204 3.8824,12.86047 -1.21325,3.51844 -7.76481,10.31265 -14.4377,9.94867 -6.67289,-0.36397 -9.09939,-0.36397 -14.4377,-1.4559 z"
     id="path1298"
     inkscape:export-filename="C:\All\Batocera\batocera-assets\logos\joystick-black-favicon.png"
     inkscape:export-xdpi="192"
     inkscape:export-ydpi="192" /><path
     d="m 641.7,355.8 c 2.2,3.6 3.8,7.6 4.5,11.9 0.5,3.1 0.7,6.2 0.3,9.5 L 635,478.8 c -1.8,15.5 -16.4,26 -31.7,22.8 L 450.6,469.1 c -13.6,-2.9 -21.7,-17 -17.3,-30.3 l 27,-80.5 2.8,-8.5 c 0.6,-1.7 1.2,-3.3 2,-4.9 1.3,-2.6 2.8,-5.1 4.5,-7.3 3.9,-5 8.9,-9 14.5,-11.7 l -45.7,-8.5 c -23.4,-4.4 -46.8,7.4 -57.3,28.7 l -33.8,69 -13.38371,27.68712 C 335.41629,440.88712 342.1,424.1 344,422.5 c 2.8,-2.3 6.1,-4.4 9.7,-6 6,-2.7 13,-4.2 20.4,-4.2 22.6,0 41,14.1 41,31.5 v 12.6 1.5 0.5 c 0,0.3 -0.1,0.7 -0.1,1 0,0.2 -0.1,0.4 -0.1,0.6 0,0.3 -0.1,0.6 -0.2,0.9 0,0.2 -0.1,0.4 -0.1,0.6 0,0.1 0,0.2 -0.1,0.3 0,0.2 -0.1,0.4 -0.1,0.6 0,0.2 -0.1,0.4 -0.2,0.6 l -0.3,0.9 c -0.1,0.2 -0.1,0.4 -0.2,0.6 -0.1,0.3 -0.2,0.6 -0.4,1 -0.1,0.2 -0.1,0.3 -0.2,0.5 -0.2,0.5 -0.4,0.9 -0.6,1.4 v 0 c -0.2,0.5 -0.5,1 -0.8,1.5 -0.1,0.2 -0.2,0.3 -0.3,0.5 -0.2,0.3 -0.4,0.7 -0.6,1 -0.1,0.2 -0.2,0.4 -0.4,0.6 -0.2,0.3 -0.4,0.6 -0.6,0.8 -0.1,0.2 -0.3,0.4 -0.4,0.6 -0.2,0.3 -0.4,0.5 -0.6,0.8 l -0.1,0.1 -0.3,0.3 c -0.3,0.4 -0.6,0.8 -1,1.1 -0.2,0.2 -0.3,0.3 -0.4,0.5 -0.3,0.4 -0.7,0.7 -1,1.1 l -0.4,0.4 c -0.5,0.5 -1,0.9 -1.5,1.3 -0.1,0.1 -0.2,0.2 -0.3,0.2 -0.4,0.4 -0.9,0.7 -1.3,1.1 -0.2,0.1 -0.4,0.3 -0.5,0.4 l -1.2,0.9 c -0.2,0.1 -0.4,0.2 -0.5,0.3 -0.6,0.4 -1.2,0.8 -1.8,1.1 v 0 c -0.6,0.4 -1.3,0.7 -1.9,1 l -0.6,0.3 c -0.5,0.2 -1,0.5 -1.4,0.7 -0.2,0.1 -0.4,0.2 -0.7,0.3 -0.5,0.2 -1.1,0.5 -1.7,0.7 -0.1,0 -0.3,0.1 -0.4,0.2 -0.7,0.3 -1.4,0.5 -2.1,0.7 -0.2,0.1 -0.4,0.1 -0.6,0.2 -0.5,0.2 -1.1,0.3 -1.7,0.5 -0.2,0.1 -0.5,0.1 -0.7,0.2 -0.6,0.1 -1.1,0.3 -1.7,0.4 -0.2,0 -0.4,0.1 -0.6,0.1 -0.8,0.1 -1.5,0.3 -2.3,0.4 -0.2,0 -0.3,0 -0.5,0.1 -0.6,0.1 -1.3,0.2 -2,0.2 -0.3,0 -0.5,0.1 -0.8,0.1 -0.6,0 -1.2,0.1 -1.8,0.1 h -0.7 c -0.8,0 -1.7,0.1 -2.5,0.1 -22.6,0 -40,-15.13856 -40,-31.5 V 443.02359 L 326.1,458.7 c -17.4,35.4 3.3,77.7 41.9,85.7 l 232.9,48.3 c 32.1,6.6 62.8,-16.2 65.7,-48.8 l 11.7,-132.5 c 2.5,-25.5 -13.2,-48.3 -36.6,-55.6 z m -213.2,96.6 0.4,-1.1 c 0.5,12.1 9,23 21.7,25.6 L 604,508.4 c 12.6,2.6 24.7,-3.9 30,-14.9 l -0.1,1.4 c -1.7,15.8 -16.5,26.6 -32.1,23.4 L 448.4,487.1 c -15.8,-3.2 -25.1,-19.5 -19.9,-34.7 z m 227.8,88.2 c -1.2,5.2 -3.1,10.3 -6,15 l -1.1,1.8 -1.2,1.7 c -0.4,0.6 -0.8,1.1 -1.3,1.7 -0.4,0.5 -0.9,1.1 -1.4,1.6 -1.9,2.1 -3.9,4 -6.2,5.7 -2.3,1.7 -4.6,3.2 -7.1,4.5 -2.5,1.3 -5.1,2.4 -7.8,3.2 -10.7,3.4 -22.1,3.5 -32.9,1.5 -1.4,-0.2 -2.6,-0.5 -3.9,-0.8 l -3.8,-0.8 -7.6,-1.6 c -5.1,-1.1 -10.1,-2.2 -15.2,-3.3 -20.2,-4.4 -40.4,-9 -60.5,-13.9 -10,-2.5 -20.1,-5 -30.1,-7.6 -5,-1.3 -10,-2.6 -15,-4 l -15,-4.2 c 5.2,0.6 10.3,1.3 15.4,2.1 5.1,0.7 10.3,1.5 15.4,2.3 10.3,1.5 20.5,3.3 30.7,5 20.4,3.5 40.8,7.3 61.1,11.3 5.1,1 10.2,2 15.2,3 l 15.1,3.1 c 9.5,1.9 19.4,2 28.6,-0.3 4.6,-1.2 9,-3 13,-5.5 2,-1.3 3.9,-2.7 5.7,-4.3 1.7,-1.6 3.5,-3.3 5,-5.3 6.2,-7.6 9.9,-17.3 12.2,-27.4 0.4,5 -0.1,10.3 -1.3,15.5 z"
     id="path60-7"
     sodipodi:nodetypes="cccccccccsccccccccssccssscscscccscssccccccccccccsccccccssscscccccccccccssssssccccccccccccccccscccccsscccccccssccccccccccccs"
     style="stroke:none;stroke-width:4;stroke-linecap:round;stroke-linejoin:round;stroke-miterlimit:4;stroke-dasharray:none;stroke-opacity:1;paint-order:stroke fill markers"
     inkscape:export-filename="C:\All\Batocera\batocera-assets\logos\joystick-black-favicon.png"
     inkscape:export-xdpi="192"
     inkscape:export-ydpi="192" /><path
     d="m 574.5,333.2 -1.4,8.1 c 0.9,0.5 1.7,1.1 2.6,1.7 5.5,3.9 9.7,9 12,14.7 1.3,3.2 2,6.6 2,10.1 0,0.3 0,0.6 0,0.8 -0.6,16.8 -17.8,30.2 -38.8,30.1 -21.4,-0.1 -40.7,-15.3 -40.6,-32.5 0,-3.2 0.7,-6.2 1.9,-9.1 1.7,-4 4.5,-7.7 8.1,-10.9 2.5,-2.2 5.3,-4.1 8.5,-5.7 0.8,-0.4 1.6,-0.9 2.5,-1.2 v -4.6 l 0.1,-8.6 0.5,-50.2 c -22.3,-12.1 -37.4,-36 -37.3,-63.5 0.2,-39.5 31.7,-71.4 70.4,-71.2 38.7,0.2 70,32.3 69.8,71.8 -0.2,32.6 -21.6,59.9 -50.8,68.5 z"
     id="path72"
     style="stroke:none;stroke-width:4;stroke-linecap:round;stroke-linejoin:round;stroke-miterlimit:4;stroke-dasharray:none;stroke-opacity:1;paint-order:stroke fill markers"
     inkscape:export-filename="C:\All\Batocera\batocera-assets\logos\joystick-black-favicon.png"
     inkscape:export-xdpi="192"
     inkscape:export-ydpi="192" /><path
     d="m 607.2,374.3 -2.6,39.9 c -0.38051,6.64116 -3.34758,12.92039 -7.1,18.7 -0.19634,0.30241 -0.53829,0.69514 -0.7,0.9 -0.30862,0.39095 -0.58321,0.73057 -0.9,1.1 -3.59273,4.18967 -7.88994,7.73694 -12.6,10.3 -0.0878,0.0478 -0.11243,0.0517 -0.2,0.1 -4.89329,2.69823 -10.28796,5.11248 -15.8,6.4 -5.52081,1.28957 -10.15611,2.3 -15.4,2.3 h -4.7 c -1.2,0 -2.40256,-0.0184 -3.7,-0.1 -32.10522,-2.01859 -56.9,-23.2 -55.4,-47.3 l 2.6,-39.9 c 0,0.7 -0.1,1.3 -0.1,2 v 0.3 c 0,2.2 0.2,4.4 0.7,6.6 0.3,1.4 0.7,2.9 1.2,4.3 1.9,5.6 5.3,10.8 9.7,15.4 10,10.4 25.8,17.6 43.9,18.7 1.2,0.1 2.4,0.1 3.7,0.1 h 1 c 7.7345,0 15.32205,-0.86169 22.5,-3.2 6.41734,-2.09053 12.36084,-5.04237 17.6,-8.9 0.22776,-0.1677 0.47331,-0.33085 0.7,-0.5 4.1319,-3.083 7.41799,-6.77699 10.3,-11.1 0.2,-0.3 0.40393,-0.69742 0.6,-1 1.59677,-2.46424 2.71573,-5.37034 3.6,-8.2 v 0 -0.2 c 0.57578,-2.4057 0.92104,-4.30195 1.1,-6.7 z"
     id="path74"
     sodipodi:nodetypes="ccsssssssssccssccccssssssscccc"
     style="stroke:none;stroke-width:4;stroke-linecap:round;stroke-linejoin:round;stroke-miterlimit:4;stroke-dasharray:none;stroke-opacity:1;paint-order:stroke fill markers"
     inkscape:export-filename="C:\All\Batocera\batocera-assets\logos\joystick-black-favicon.png"
     inkscape:export-xdpi="192"
     inkscape:export-ydpi="192" /><path
     fill="#831308"
     d="m 333.18953,443.77016 c 1.48128,15.99383 19.10066,32.05575 40.61047,30.92984 21.85296,-1.14387 39.13266,-12.39307 41.54556,-31 v 12.72745 1.5 0.5 c 0,0.3 -0.0805,0.88359 -0.1,1 -0.89158,6.60337 -4.76508,12.48855 -9.45568,17.45469 -7.33672,7.76769 -17.51316,11.46558 -31.98988,11.44531 -22.6,0 -40.61047,-14.22984 -40.61047,-31.62984 z"
     id="path78"
     sodipodi:nodetypes="cscccscsccc"
     inkscape:export-filename="C:\All\Batocera\batocera-assets\logos\joystick-black-favicon.png"
     inkscape:export-xdpi="192"
     inkscape:export-ydpi="192" /><path
     fill="#bf1617"
     d="m 374.6,438.1 c 1.7,0.4 3.4,0.3 5,-0.4 1.6,-0.7 2.7,-1.7 3.2,-3.2 0.6,-1.4 0.5,-2.7 -0.3,-3.9 -0.7,-1.2 -1.9,-2.1 -3.6,-2.5 -2.7,-0.6 -4.1,-1 -6.8,-1.6 -1.9,4 -2.8,5.9 -4.7,9.9 2.9,0.7 4.3,1 7.2,1.7 0,0 0,0 0,0 z"
     id="path80"
     inkscape:export-filename="C:\All\Batocera\batocera-assets\logos\joystick-black-favicon.png"
     inkscape:export-xdpi="192"
     inkscape:export-ydpi="192" /><path
     fill="#bf1617"
     d="m 374.1,412.3 c -7.4,0 -14.4,1.5 -20.4,4.2 -3.6,1.6 -6.9,3.6 -9.7,6 -1.9,1.6 -3.6,3.4 -5.1,5.3 -3.6,4.7 -5.7,10.2 -5.7,16 v 0.7 c 0.5,17.1 18.60002,30.77132 41,30.8 17.5043,0.0224 41.36267,-10.9885 41.2,-31.6 -0.13734,-17.40204 -18.6,-31.4 -41.3,-31.4 z m 16.2,41 c -0.5,1.5 -1.3,2.7 -2.5,3.8 -1.2,1.1 -2.5,2 -4.1,2.6 -1.6,0.6 -3.3,1 -5.1,1.1 -1.9,0.1 -3.8,0 -5.6,-0.5 -6,-1.5 -9,-2.2 -15,-3.7 -2,-0.5 -3.4,-1.4 -4.3,-2.8 -0.9,-1.4 -0.9,-2.8 -0.2,-4.2 5,-9.8 7.5,-14.8 12.5,-24.6 0.8,-1.5 2,-2.6 3.7,-3.3 1.7,-0.7 3.4,-0.9 5.1,-0.5 2.6,0.7 4,1 6.6,1.6 1.7,0.4 3.1,1 4.3,1.9 1.2,0.9 2.2,1.9 2.9,3.1 0.7,1.2 1.2,2.5 1.3,4 0.1,1.5 0,2.9 -0.6,4.3 -0.8,2.1 -2.2,3.8 -4.1,5.2 2.2,1.3 3.9,3.1 4.9,5.3 0.9,2.1 1,4.4 0.2,6.7 z"
     id="path84"
     sodipodi:nodetypes="scccscssscssccssccsccssscccc"
     inkscape:export-filename="C:\All\Batocera\batocera-assets\logos\joystick-black-favicon.png"
     inkscape:export-xdpi="192"
     inkscape:export-ydpi="192" /><path
     fill="#bf1617"
     d="m 380.2,454.6 c 1.6,-0.7 2.7,-1.7 3.2,-3 0.5,-1.4 0.4,-2.7 -0.5,-4 -0.8,-1.3 -2.1,-2.1 -3.8,-2.5 -5.7,-1.4 -8.5,-2.1 -14.2,-3.4 -1.8,3.9 -2.7,5.8 -4.6,9.6 5.9,1.5 8.8,2.2 14.7,3.6 1.9,0.5 3.6,0.4 5.2,-0.3 z"
     id="path86"
     inkscape:export-filename="C:\All\Batocera\batocera-assets\logos\joystick-black-favicon.png"
     inkscape:export-xdpi="192"
     inkscape:export-ydpi="192" /></g><g
   inkscape:groupmode="layer"
   id="layer4"
   inkscape:label="Typeface source"
   style="display:none;opacity:1"><text
     xml:space="preserve"
     style="font-style:normal;font-variant:normal;font-weight:normal;font-stretch:normal;font-size:146.16px;line-height:1.25;font-family:Urba;-inkscape-font-specification:Urba;font-variant-ligatures:normal;font-variant-position:normal;font-variant-caps:normal;font-variant-numeric:normal;font-variant-alternates:normal;font-variant-east-asian:normal;font-feature-settings:normal;text-indent:0;text-align:start;text-decoration-line:none;text-decoration-style:solid;text-decoration-color:#000000;letter-spacing:0px;word-spacing:0px;text-transform:none;writing-mode:lr-tb;direction:ltr;text-orientation:mixed;dominant-baseline:auto;baseline-shift:baseline;text-anchor:start;white-space:normal;shape-padding:0;shape-margin:0;inline-size:0;opacity:1;vector-effect:none;fill:#e04949;fill-opacity:1;stroke-width:1;stroke-linecap:butt;stroke-linejoin:miter;stroke-miterlimit:4;stroke-dasharray:none;stroke-dashoffset:0;stroke-opacity:1;-inkscape-stroke:none;stop-color:#000000;stop-opacity:1"
     x="102.91935"
     y="250.37109"
     id="text2598"
     transform="rotate(11.780401,-1634.3585,768.77883)"
     inkscape:transform-center-x="-295.99601"
     inkscape:transform-center-y="62.591461"><tspan
       sodipodi:role="line"
       id="tspan2596"
       x="102.91935"
       y="250.37109">BATOCERA</tspan></text></g></svg>
